<?xml version="1.0" encoding="utf-8" ?>
<svg baseProfile="tiny" height="100%" version="1.2" width="100%" xmlns="http://www.w3.org/2000/svg" xmlns:ev="http://www.w3.org/2001/xml-events" xmlns:xlink="http://www.w3.org/1999/xlink"><defs /><polygon fill="currentColor" points="0,0 0,76 0,65 1,64 1,54 2,53 2,50 3,49 3,48 4,47 4,46 7,43 8,44 8,45 6,47 6,48 5,49 5,50 4,51 4,54 3,55 3,67 2,68 2,81 1,82 1,97 0,98 0,117 1,118 1,120 2,121 2,123 3,124 3,125 4,126 4,128 5,129 5,130 6,131 6,132 8,134 8,135 9,136 9,137 11,139 11,140 13,142 13,143 15,145 15,146 21,152 22,152 23,153 24,153 26,155 27,155 28,156 29,156 30,157 31,157 32,158 33,158 35,160 36,160 37,161 38,161 40,163 41,163 42,164 43,164 44,165 45,165 46,166 47,166 49,168 50,168 51,169 52,169 53,170 54,170 56,172 57,172 58,173 59,173 61,175 62,175 63,176 65,176 66,177 67,177 68,178 77,178 78,177 81,177 82,176 85,176 86,175 89,175 90,174 93,174 94,173 98,173 99,172 102,172 103,171 106,171 107,170 110,170 111,169 114,169 115,168 119,168 120,167 123,167 124,166 127,166 128,165 131,165 132,164 135,164 136,163 140,163 141,162 144,162 145,161 148,161 149,160 153,160 154,159 157,159 158,158 161,158 162,157 164,157 165,156 166,156 167,155 168,155 170,153 172,153 174,155 175,155 177,157 178,157 180,159 181,159 182,160 183,160 184,161 186,161 187,162 189,162 190,163 193,163 194,164 195,164 196,165 197,165 199,167 200,167 202,169 203,169 204,170 205,170 207,172 208,172 209,173 210,173 212,175 213,175 215,177 216,177 217,178 218,178 220,180 221,180 222,181 223,181 225,183 226,183 227,184 228,184 230,186 231,186 232,187 233,187 235,189 236,189 238,191 239,191 241,193 242,193 243,194 244,194 246,196 247,196 248,197 249,197 251,199 252,199 253,200 254,200 256,202 257,202 259,204 260,204 261,205 262,205 264,207 265,207 267,209 268,209 269,210 270,210 272,212 273,212 276,215 277,215 279,217 280,217 282,219 283,219 286,222 287,222 290,225 291,225 293,227 294,227 296,229 297,229 300,232 301,232 304,235 305,235 307,237 308,237 310,239 311,239 313,241 314,241 316,243 317,243 319,245 320,245 322,247 323,247 325,249 326,249 328,251 329,251 331,253 332,253 334,255 335,255 337,257 338,257 341,260 342,260 344,262 345,262 347,264 348,264 349,265 349,268 350,269 350,270 351,271 352,271 353,272 355,272 356,271 358,271 359,272 360,272 361,273 361,276 362,277 362,278 364,280 367,280 368,279 371,279 374,282 373,283 373,284 374,285 374,286 376,288 379,288 380,287 383,287 386,290 385,291 385,292 386,293 386,294 388,296 391,296 392,295 393,295 394,294 395,295 396,295 397,296 398,296 400,298 401,298 403,300 404,300 405,301 406,301 408,303 409,303 410,304 411,304 413,306 414,306 415,307 416,307 419,310 418,311 419,312 419,314 420,315 422,315 423,316 424,315 425,315 426,314 428,314 431,317 431,319 434,322 438,322 439,321 440,321 441,322 442,322 444,324 444,327 446,329 450,329 451,328 453,328 454,329 455,329 457,331 457,333 458,334 458,335 459,335 460,336 463,336 464,335 466,335 467,336 468,336 469,337 470,337 471,338 473,338 474,339 475,339 476,340 477,340 478,341 479,341 480,342 481,342 482,343 484,343 485,344 487,344 488,345 490,345 491,346 493,346 494,347 498,347 500,345 500,344 502,342 503,342 504,343 505,343 506,344 507,344 508,345 509,345 511,347 512,347 513,348 514,348 516,350 517,350 518,351 519,351 521,353 522,353 523,354 524,354 526,356 527,356 528,357 529,357 531,359 532,359 533,360 534,360 536,362 537,362 538,363 539,363 540,364 541,364 543,366 544,366 545,367 546,367 548,369 549,369 550,370 551,370 552,371 553,371 555,373 556,373 557,374 558,374 560,376 561,376 562,377 563,377 565,379 566,379 567,380 568,380 569,381 570,381 572,383 573,383 574,384 575,384 576,385 577,385 578,386 580,386 581,387 582,387 583,388 585,388 587,390 589,390 590,391 591,391 592,392 593,392 594,393 596,393 597,394 598,394 599,395 600,395 601,396 602,396 601,395 600,395 597,392 596,392 592,388 591,388 587,384 586,384 583,381 582,381 578,377 577,377 576,376 575,376 573,374 572,374 571,373 570,373 568,371 567,371 566,370 565,370 563,368 562,368 561,367 560,367 558,365 557,365 556,364 555,364 553,362 552,362 551,361 550,361 548,359 547,359 546,358 545,358 543,356 542,356 541,355 540,355 538,353 537,353 535,351 534,351 533,350 532,350 531,349 530,349 529,348 528,348 526,346 525,346 523,344 522,344 521,343 520,343 518,341 517,341 516,340 515,340 513,338 512,338 511,337 510,337 507,334 507,333 509,331 509,328 508,327 508,326 501,319 500,319 496,315 495,315 492,312 491,312 489,310 488,310 486,308 485,308 481,304 481,302 479,300 473,300 469,296 469,294 467,292 460,292 457,289 457,287 455,285 454,285 453,284 452,284 451,285 449,285 448,284 447,284 445,282 445,279 443,277 442,277 441,276 440,276 439,277 435,277 434,276 433,276 431,274 430,274 429,273 428,273 427,272 426,272 424,270 423,270 422,269 421,269 420,268 419,268 417,266 416,266 415,265 414,265 412,263 412,260 411,259 411,258 410,258 409,257 406,257 405,258 404,258 403,259 402,258 401,258 399,256 399,254 398,253 398,252 397,251 392,251 391,252 390,252 389,251 388,251 386,249 386,246 385,245 384,245 383,244 380,244 379,245 377,245 376,244 375,244 373,242 373,240 371,238 366,238 365,239 364,238 363,238 362,237 361,237 360,236 359,236 358,235 357,235 356,234 355,234 354,233 353,233 352,232 351,232 350,231 349,231 348,230 347,230 346,229 345,229 344,228 343,228 342,227 341,227 340,226 339,226 338,225 337,225 336,224 335,224 334,223 333,223 332,222 331,222 330,221 329,221 328,220 327,220 326,219 325,219 324,218 323,218 322,217 321,217 320,216 319,216 318,215 317,215 316,214 315,214 314,213 312,213 311,212 310,212 309,211 308,211 307,210 306,210 305,209 304,209 303,208 302,208 301,207 299,207 298,206 297,206 296,205 295,205 294,204 293,204 292,203 291,203 290,202 289,202 288,201 287,201 286,200 285,200 284,199 283,199 282,198 280,198 278,196 277,196 276,195 275,195 274,194 273,194 271,192 270,192 269,191 268,191 267,190 266,190 265,189 264,189 263,188 262,188 260,186 259,186 258,185 257,185 256,184 255,184 254,183 253,183 251,181 250,181 249,180 248,180 247,179 246,179 244,177 243,177 242,176 241,176 240,175 239,175 238,174 237,174 236,173 235,173 234,172 233,172 231,170 230,170 229,169 228,169 227,168 226,168 225,167 224,167 222,165 221,165 220,164 219,164 218,163 217,163 215,161 214,161 213,160 212,160 211,159 210,159 209,158 208,158 207,157 206,157 204,155 203,155 202,154 201,154 194,147 193,147 190,144 189,144 188,143 187,143 185,141 184,141 183,140 182,140 181,139 180,139 179,138 178,138 177,137 177,132 176,131 176,128 175,127 175,125 174,124 174,122 173,121 173,118 172,117 172,115 171,114 171,111 170,110 170,108 169,107 169,104 168,103 168,101 167,100 167,97 166,96 166,94 165,93 165,91 164,90 164,87 163,86 163,83 162,82 162,80 161,79 161,76 160,75 160,73 159,72 159,70 158,69 158,66 157,65 157,62 156,61 156,59 155,58 155,56 154,55 154,52 153,51 153,48 152,47 152,45 151,44 151,42 150,41 150,40 149,39 149,38 148,37 148,36 145,33 144,33 142,31 141,31 140,30 139,30 137,28 136,28 135,27 134,27 132,25 131,25 129,23 128,23 127,22 126,22 124,20 123,20 122,19 121,19 119,17 118,17 116,15 115,15 114,14 113,14 111,12 110,12 109,11 108,11 106,9 105,9 103,7 102,7 100,5 99,5 98,4 97,4 96,3 95,3 94,2 92,2 91,1 88,1 87,0 74,0 73,1 66,1 65,2 61,2 60,3 59,3 58,4 57,4 55,6 54,6 53,5 56,2 57,2 58,1 59,1 60,0 62,0" /></svg>